<svg width="155" height="47" viewBox="0 0 155 47" fill="none" xmlns="http://www.w3.org/2000/svg">
<path d="M7.52344 3.63281L3.62109 18H0.316406L5.69531 0.9375H7.75781L7.52344 3.63281ZM10.6055 18L6.70312 3.63281L6.43359 0.9375H8.51953L13.9219 18H10.6055ZM10.7109 11.6484V14.2617H2.88281V11.6484H10.7109ZM27.4688 0.9375V18H24.4102L18.7148 6.76172V18H15.7148V0.9375H18.7266L24.4688 12.2812V0.9375H27.4688ZM42.2109 0.9375V18H39.1523L33.457 6.76172V18H30.457V0.9375H33.4688L39.2109 12.2812V0.9375H42.2109ZM54.8438 15.3867V18H47.4375V15.3867H54.8438ZM48.3398 0.9375V18H45.1992V0.9375H48.3398ZM53.8477 7.94531V10.4883H47.4375V7.94531H53.8477ZM54.7969 0.9375V3.5625H47.4375V0.9375H54.7969ZM5.8125 46H2.82422L2.84766 43.3867H5.8125C6.67969 43.3867 7.36328 43.2305 7.86328 42.918C8.37109 42.5977 8.73047 42.1016 8.94141 41.4297C9.16016 40.7578 9.26953 39.8906 9.26953 38.8281V36.0977C9.26953 35.2852 9.21094 34.5938 9.09375 34.0234C8.97656 33.4453 8.78516 32.9766 8.51953 32.6172C8.25391 32.2578 7.90625 31.9922 7.47656 31.8203C7.04688 31.6484 6.51562 31.5625 5.88281 31.5625H2.76562V28.9375H5.88281C6.86719 28.9375 7.75781 29.0977 8.55469 29.418C9.35156 29.7305 10.0352 30.1914 10.6055 30.8008C11.1836 31.4102 11.625 32.1641 11.9297 33.0625C12.2344 33.9531 12.3867 34.9727 12.3867 36.1211V38.8281C12.3867 39.9766 12.2344 40.9961 11.9297 41.8867C11.625 42.7773 11.1836 43.5273 10.6055 44.1367C10.0352 44.7461 9.34375 45.2109 8.53125 45.5312C7.72656 45.8438 6.82031 46 5.8125 46ZM4.62891 28.9375V46H1.48828V28.9375H4.62891ZM26.8594 36.1094V38.9805C26.8594 40.1836 26.7188 41.2383 26.4375 42.1445C26.1562 43.0508 25.75 43.8086 25.2188 44.418C24.6875 45.0195 24.0508 45.4727 23.3086 45.7773C22.5664 46.082 21.7461 46.2344 20.8477 46.2344C19.9414 46.2344 19.1172 46.082 18.375 45.7773C17.6328 45.4727 16.9922 45.0195 16.4531 44.418C15.9219 43.8086 15.5078 43.0508 15.2109 42.1445C14.9219 41.2383 14.7773 40.1836 14.7773 38.9805V36.1094C14.7773 34.8828 14.9219 33.8086 15.2109 32.8867C15.5 31.9648 15.9102 31.1953 16.4414 30.5781C16.9805 29.9609 17.6211 29.4961 18.3633 29.1836C19.1055 28.8633 19.9258 28.7031 20.8242 28.7031C21.7305 28.7031 22.5508 28.8633 23.2852 29.1836C24.0273 29.4961 24.6641 29.9609 25.1953 30.5781C25.7344 31.1953 26.1445 31.9648 26.4258 32.8867C26.7148 33.8086 26.8594 34.8828 26.8594 36.1094ZM23.7422 38.9805V36.0859C23.7422 35.25 23.6797 34.5312 23.5547 33.9297C23.4297 33.3281 23.2422 32.8398 22.9922 32.4648C22.7422 32.082 22.4336 31.8008 22.0664 31.6211C21.707 31.4414 21.293 31.3516 20.8242 31.3516C20.3477 31.3516 19.9258 31.4414 19.5586 31.6211C19.1992 31.8008 18.8945 32.082 18.6445 32.4648C18.4023 32.8398 18.2188 33.3281 18.0938 33.9297C17.9688 34.5312 17.9062 35.25 17.9062 36.0859V38.9805C17.9062 39.8008 17.9688 40.5039 18.0938 41.0898C18.2188 41.6758 18.4062 42.1523 18.6562 42.5195C18.9141 42.8867 19.2227 43.1602 19.582 43.3398C19.9492 43.5117 20.3711 43.5977 20.8477 43.5977C21.3164 43.5977 21.7305 43.5117 22.0898 43.3398C22.457 43.1602 22.7617 42.8867 23.0039 42.5195C23.2539 42.1523 23.4375 41.6758 23.5547 41.0898C23.6797 40.5039 23.7422 39.8008 23.7422 38.9805ZM34.4766 42.5898L37.9102 28.9375H41.2969L36.2812 46H33.9727L34.4766 42.5898ZM31.5 28.9375L34.9219 42.5898L35.4492 46H33.1289L28.1367 28.9375H31.5ZM54.3047 37.1406V44.0195C54.0781 44.2773 53.7422 44.582 53.2969 44.9336C52.8516 45.2773 52.2617 45.582 51.5273 45.8477C50.8008 46.1055 49.8984 46.2344 48.8203 46.2344C47.8906 46.2344 47.043 46.0859 46.2773 45.7891C45.5195 45.4922 44.8672 45.043 44.3203 44.4414C43.7812 43.832 43.3633 43.0742 43.0664 42.168C42.7773 41.2617 42.6328 40.1914 42.6328 38.957V35.9805C42.6328 34.7539 42.7656 33.6875 43.0312 32.7812C43.3047 31.8672 43.6992 31.1055 44.2148 30.4961C44.7383 29.8867 45.3672 29.4336 46.1016 29.1367C46.8359 28.8398 47.6719 28.6914 48.6094 28.6914C49.8516 28.6914 50.875 28.9062 51.6797 29.3359C52.4922 29.7578 53.1094 30.3828 53.5312 31.2109C53.9609 32.0391 54.2188 33.0547 54.3047 34.2578H51.2578C51.1953 33.5391 51.0664 32.9648 50.8711 32.5352C50.6758 32.1055 50.3984 31.793 50.0391 31.5977C49.6875 31.4023 49.2305 31.3047 48.668 31.3047C48.168 31.3047 47.7344 31.3945 47.3672 31.5742C47.0078 31.7461 46.707 32.0195 46.4648 32.3945C46.2305 32.7695 46.0547 33.25 45.9375 33.8359C45.8281 34.4219 45.7734 35.1289 45.7734 35.957V38.957C45.7734 39.7852 45.8398 40.4961 45.9727 41.0898C46.1133 41.6836 46.3164 42.168 46.582 42.543C46.8477 42.918 47.1797 43.1914 47.5781 43.3633C47.9766 43.5352 48.4414 43.6211 48.9727 43.6211C49.4414 43.6211 49.8164 43.5742 50.0977 43.4805C50.3789 43.3867 50.6016 43.2812 50.7656 43.1641C50.9375 43.0391 51.0742 42.9453 51.1758 42.8828V39.5547H48.5742V37.1406H54.3047ZM63.0469 31.6328L59.1445 46H55.8398L61.2188 28.9375H63.2812L63.0469 31.6328ZM66.1289 46L62.2266 31.6328L61.957 28.9375H64.043L69.4453 46H66.1289ZM66.2344 39.6484V42.2617H58.4062V39.6484H66.2344ZM80.5664 43.3867V46H73.4766V43.3867H80.5664ZM74.3789 28.9375V46H71.2383V28.9375H74.3789ZM81.7031 28.9375L84.5039 36.8242L87.293 28.9375H90.7383L86.0859 39.7656V46H82.9219V39.7656L78.2695 28.9375H81.7031ZM99.0938 28.9375H102.234V40.7266C102.234 42.0312 101.992 43.0898 101.508 43.9023C101.023 44.7148 100.363 45.3086 99.5273 45.6836C98.6914 46.0508 97.75 46.2344 96.7031 46.2344C95.6328 46.2344 94.6797 46.0508 93.8438 45.6836C93.0078 45.3086 92.3516 44.7148 91.875 43.9023C91.4062 43.0898 91.1719 42.0312 91.1719 40.7266V28.9375H94.3008V40.7266C94.3008 41.5 94.3945 42.0977 94.582 42.5195C94.7773 42.9414 95.0508 43.2305 95.4023 43.3867C95.7539 43.543 96.1875 43.6211 96.7031 43.6211C97.2188 43.6211 97.6523 43.543 98.0039 43.3867C98.3555 43.2305 98.625 42.9414 98.8125 42.5195C99 42.0977 99.0938 41.5 99.0938 40.7266V28.9375ZM108.152 28.9375V46H105.012V28.9375H108.152ZM116.648 28.9375L111.035 37.293L107.637 41.5L107.051 38.2891L109.312 34.7148L112.84 28.9375H116.648ZM113.098 46L109.078 38.0547L111.316 35.9219L116.812 46H113.098Z" fill="black"/>
<path fill-rule="evenodd" clip-rule="evenodd" d="M138.002 7.6148L134.571 1H121V7.78577H121V13.3105L127.786 26.3828V21.3774H134.572V39.4556L137.969 45.9999L141.357 39.4719V21.3774H141.378V14.5849H141.357V7.79251H141.378H148.143V26.4L154.928 13.3276V7.79251H154.963V1H141.432L138.002 7.6148ZM134.572 7.79251V14.5849H127.786V7.79251H134.572Z" fill="black"/>
</svg>
