<svg width="36" height="36" viewBox="0 0 36 36" fill="none" xmlns="http://www.w3.org/2000/svg">
<path d="M25.9844 1.15625H10.0156C5.12273 1.15625 1.15625 5.12273 1.15625 10.0156V25.9844C1.15625 30.8773 5.12273 34.8438 10.0156 34.8438H25.9844C30.8773 34.8438 34.8438 30.8773 34.8438 25.9844V10.0156C34.8438 5.12273 30.8773 1.15625 25.9844 1.15625Z" stroke="black" stroke-width="2"/>
<path d="M18 25.875C22.3492 25.875 25.875 22.3492 25.875 18C25.875 13.6508 22.3492 10.125 18 10.125C13.6508 10.125 10.125 13.6508 10.125 18C10.125 22.3492 13.6508 25.875 18 25.875Z" stroke="black" stroke-width="2"/>
<path d="M27.9531 8.70312C28.3156 8.70312 28.6094 8.40931 28.6094 8.04688C28.6094 7.68444 28.3156 7.39062 27.9531 7.39062C27.5907 7.39062 27.2969 7.68444 27.2969 8.04688C27.2969 8.40931 27.5907 8.70312 27.9531 8.70312Z" stroke="black" stroke-width="2"/>
</svg>
