<svg width="41" height="34" viewBox="0 0 41 34" fill="none" xmlns="http://www.w3.org/2000/svg">
<mask id="path-1-inside-1_0_1" fill="white">
<path d="M15.7656 31.1875C14.5625 31.1875 14.6719 30.75 14.3438 29.6562L10.8438 18.1719L37.6406 2.42188"/>
</mask>
<path d="M15.7656 31.1875C14.5625 31.1875 14.6719 30.75 14.3438 29.6562L10.8438 18.1719L37.6406 2.42188" fill="#C8DAEA"/>
<path d="M14.3438 29.6562L15.3016 29.3689L15.3003 29.3647L14.3438 29.6562ZM10.8438 18.1719L10.337 17.3098L9.65735 17.7092L9.88719 18.4634L10.8438 18.1719ZM15.7656 30.1875C15.6436 30.1875 15.557 30.1818 15.4966 30.1743C15.4361 30.1667 15.4139 30.1587 15.4159 30.1594C15.4499 30.1715 15.5176 30.2159 15.5586 30.2773C15.5711 30.296 15.5501 30.2725 15.4979 30.0867C15.4734 29.9994 15.4501 29.9079 15.4166 29.7811C15.3848 29.6604 15.3473 29.5214 15.3016 29.3689L13.3859 29.9436C13.4699 30.2236 13.498 30.3624 13.5724 30.6272C13.6296 30.831 13.718 31.1219 13.8945 31.3867C14.3524 32.0736 15.0894 32.1875 15.7656 32.1875V30.1875ZM15.3003 29.3647L11.8003 17.8804L9.88719 18.4634L13.3872 29.9478L15.3003 29.3647ZM11.3505 19.034L38.1473 3.28399L37.1339 1.55976L10.337 17.3098L11.3505 19.034Z" fill="black" mask="url(#path-1-inside-1_0_1)"/>
<mask id="path-3-inside-2_0_1" fill="white">
<path d="M15.7656 31.1875C16.5312 31.1875 16.9688 30.75 17.5156 30.3125L22.4375 25.6094L16.3125 21.8906"/>
</mask>
<path d="M15.7656 31.1875C16.5312 31.1875 16.9688 30.75 17.5156 30.3125L22.4375 25.6094L16.3125 21.8906" fill="#A9C9DD"/>
<path d="M17.5156 30.3125L18.1403 31.0934L18.1747 31.0659L18.2065 31.0355L17.5156 30.3125ZM22.4375 25.6094L23.1284 26.3324L24.0712 25.4314L22.9565 24.7546L22.4375 25.6094ZM15.7656 32.1875C16.9605 32.1875 17.7032 31.443 18.1403 31.0934L16.8909 29.5316C16.2343 30.057 16.102 30.1875 15.7656 30.1875V32.1875ZM18.2065 31.0355L23.1284 26.3324L21.7466 24.8864L16.8248 29.5895L18.2065 31.0355ZM22.9565 24.7546L16.8315 21.0358L15.7935 22.7454L21.9185 26.4642L22.9565 24.7546Z" fill="black" mask="url(#path-3-inside-2_0_1)"/>
<mask id="path-5-inside-3_0_1" fill="white">
<path d="M16.3126 21.8909L31.0782 32.719C32.6094 33.7034 33.9219 33.1565 34.3594 31.1877L40.3751 2.96899C40.9219 0.562735 39.3907 -0.531015 37.7501 0.23461L2.64068 13.7971C0.343803 14.6721 0.343803 16.094 2.20318 16.6409L11.2813 19.4846L32.0626 6.25024C33.0469 5.70336 33.9219 5.92211 33.2657 6.68774"/>
</mask>
<path d="M16.3126 21.8909L31.0782 32.719C32.6094 33.7034 33.9219 33.1565 34.3594 31.1877L40.3751 2.96899C40.9219 0.562735 39.3907 -0.531015 37.7501 0.23461L2.64068 13.7971C0.343803 14.6721 0.343803 16.094 2.20318 16.6409L11.2813 19.4846L32.0626 6.25024C33.0469 5.70336 33.9219 5.92211 33.2657 6.68774" fill="#F6FBFE"/>
<path d="M31.0782 32.719L30.4868 33.5254L30.5116 33.5436L30.5374 33.5602L31.0782 32.719ZM34.3594 31.1877L35.3357 31.4047L35.3375 31.3962L34.3594 31.1877ZM40.3751 2.96899L39.3998 2.74734L39.397 2.76049L40.3751 2.96899ZM37.7501 0.23461L38.1104 1.16743L38.1421 1.15518L38.1729 1.14079L37.7501 0.23461ZM2.64068 13.7971L2.99668 14.7316L3.00102 14.7299L2.64068 13.7971ZM2.20318 16.6409L2.50211 15.6866L2.49375 15.684L2.48534 15.6815L2.20318 16.6409ZM11.2813 19.4846L10.9824 20.4389L11.4262 20.5779L11.8185 20.3281L11.2813 19.4846ZM32.0626 6.25024L31.5769 5.37608L31.5507 5.39064L31.5254 5.40676L32.0626 6.25024ZM15.7212 22.6973L30.4868 33.5254L31.6695 31.9126L16.9039 21.0845L15.7212 22.6973ZM30.5374 33.5602C31.466 34.1571 32.5455 34.4223 33.5411 33.9719C34.518 33.53 35.0819 32.5463 35.3356 31.4047L33.3832 30.9708C33.1994 31.7979 32.8884 32.072 32.7168 32.1497C32.564 32.2188 32.2216 32.2652 31.6189 31.8778L30.5374 33.5602ZM35.3375 31.3962L41.3531 3.17748L39.397 2.76049L33.3814 30.9792L35.3375 31.3962ZM41.3502 3.19061C41.6701 1.78297 41.4369 0.484185 40.5603 -0.3232C39.6693 -1.14393 38.4154 -1.17942 37.3272 -0.671573L38.1729 1.14079C38.7253 0.883013 39.0574 1.01159 39.2054 1.14789C39.3679 1.29754 39.6269 1.74875 39.3999 2.74736L41.3502 3.19061ZM37.3897 -0.69821L2.28034 12.8643L3.00102 14.7299L38.1104 1.16743L37.3897 -0.69821ZM2.28468 12.8626C1.63471 13.1102 1.08509 13.4189 0.672408 13.7908C0.263151 14.1596 -0.0707368 14.6481 -0.131447 15.24C-0.195226 15.8618 0.0619546 16.4039 0.459703 16.7986C0.840733 17.1768 1.35691 17.4343 1.92101 17.6002L2.48534 15.6815C2.11976 15.574 1.93867 15.4487 1.86853 15.3791C1.8151 15.326 1.86721 15.3554 1.85812 15.4441C1.85209 15.5028 1.83266 15.4375 2.01129 15.2765C2.1865 15.1187 2.49821 14.9215 2.99667 14.7316L2.28468 12.8626ZM1.90425 17.5951L10.9824 20.4389L11.5802 18.5303L2.50211 15.6866L1.90425 17.5951ZM11.8185 20.3281L32.5997 7.09371L31.5254 5.40676L10.7441 18.6411L11.8185 20.3281ZM32.5482 7.12439C32.7178 7.03016 32.8637 6.98 32.9649 6.9586C33.0862 6.93296 33.076 6.96125 32.9782 6.93038C32.9212 6.91238 32.8023 6.86277 32.6897 6.73762C32.5658 6.59999 32.5009 6.427 32.4939 6.26229C32.4876 6.11533 32.5283 6.02126 32.5387 5.99934C32.55 5.97548 32.5482 5.98818 32.5064 6.03694L34.0249 7.33853C34.2389 7.08895 34.5138 6.68341 34.4921 6.17666C34.4799 5.89232 34.3732 5.61849 34.1762 5.39969C33.9906 5.19337 33.7674 5.08223 33.5805 5.02322C33.2229 4.91031 32.8504 4.93861 32.5513 5.00183C32.2321 5.0693 31.8995 5.19687 31.5769 5.37608L32.5482 7.12439Z" fill="black" mask="url(#path-5-inside-3_0_1)"/>
</svg>
