<svg width="42" height="24" viewBox="0 0 42 24" fill="none" xmlns="http://www.w3.org/2000/svg">
<path d="M22.9687 23.7028C23.5156 23.5934 24.4999 23.3747 24.4999 22.0622C24.4999 22.0622 24.3906 18.7809 25.9218 18.3434C27.4531 17.9059 29.4218 21.5153 31.4999 22.9372C33.0312 23.9216 34.2343 23.8122 34.2343 23.8122L39.8124 23.7028C39.8124 23.7028 42.6562 23.4841 41.3437 21.1872C41.2343 20.9684 40.3593 19.5466 37.0781 16.5934C33.6874 13.3122 34.2343 13.8591 38.2812 8.28095C40.7968 4.89032 41.8906 2.8122 41.5624 2.04657C41.1249 1.28095 39.3749 1.39032 39.3749 1.39032H33.1406C32.4843 1.39032 32.1562 1.4997 31.8281 2.04657C31.8281 2.04657 30.8437 4.78095 29.5312 6.96845C26.7968 11.6716 25.7031 11.8903 25.1562 11.5622C24.1718 11.0153 24.3906 8.9372 24.3906 7.51532C24.3906 2.59345 25.1562 0.843447 22.9687 0.405947C21.5468 0.187197 16.5156 -0.0315535 14.9843 0.734072C14.2187 1.17157 13.7812 1.9372 14.1093 2.04657C14.4374 2.04657 15.4218 2.15595 15.9687 2.8122C16.8437 4.23407 16.9531 11.0153 15.7499 11.6716C14.1093 12.8747 9.95307 4.89032 8.96869 2.26532C8.74994 1.60907 8.42182 1.4997 7.65619 1.28095H1.64057C0.984315 1.28095 -5.99921e-05 1.39032 0.43744 2.70282C3.39057 8.82782 9.51557 23.8122 20.5624 23.7028H22.9687Z" fill="black"/>
</svg>
